<svg width="471" height="1024" viewBox="0 0 471 1024" fill="none" xmlns="http://www.w3.org/2000/svg">
<mask id="mask0_2_43" style="mask-type:alpha" maskUnits="userSpaceOnUse" x="0" y="0" width="472" height="1024">
<path d="M411.372 89.7603C466.785 68.7551 473.811 21.1679 470.399 0V1024H0C17.4667 1017.89 120.461 980.646 92.7546 862.187C59.6373 720.591 138.53 632.597 212.011 595.959C436.576 483.994 188.598 369.157 201.771 218.6C208.397 142.883 342.108 116.017 411.372 89.7603Z" fill="black"/>
</mask>
<g mask="url(#mask0_2_43)">
<path d="M284.936 89.7603C323.317 68.7551 328.184 21.1679 325.82 0H471V1024H0C12.0983 1017.89 83.4369 980.646 64.2462 862.187C41.3076 720.591 95.9525 632.597 146.849 595.959C302.393 483.994 130.632 369.157 139.756 218.6C144.346 142.883 236.96 116.017 284.936 89.7603Z" fill="white"/>
</g>
</svg>
